<?xml version="1.0" encoding="UTF-8" standalone="no"?>
<!-- Created with Inkscape (http://www.inkscape.org/) -->

<svg
   width="55.964081mm"
   height="50.534824mm"
   viewBox="0 0 55.964081 50.534824"
   version="1.1"
   id="svg1"
   inkscape:version="1.4.2 (ebf0e940d0, 2025-05-08)"
   sodipodi:docname="LogoLight.svg"
   xmlns:inkscape="http://www.inkscape.org/namespaces/inkscape"
   xmlns:sodipodi="http://sodipodi.sourceforge.net/DTD/sodipodi-0.dtd"
   xmlns="http://www.w3.org/2000/svg"
   xmlns:svg="http://www.w3.org/2000/svg">
  <sodipodi:namedview
     id="namedview1"
     pagecolor="#ffffff"
     bordercolor="#000000"
     borderopacity="0.25"
     inkscape:showpageshadow="2"
     inkscape:pageopacity="0.0"
     inkscape:pagecheckerboard="0"
     inkscape:deskcolor="#d1d1d1"
     inkscape:document-units="mm"
     inkscape:zoom="5.1975513"
     inkscape:cx="159.97918"
     inkscape:cy="140.25836"
     inkscape:window-width="2558"
     inkscape:window-height="1570"
     inkscape:window-x="0"
     inkscape:window-y="0"
     inkscape:window-maximized="0"
     inkscape:current-layer="layer1"
     showgrid="false" />
  <defs
     id="defs1" />
  <g
     inkscape:label="Layer 1"
     inkscape:groupmode="layer"
     id="layer1"
     transform="translate(-75.36863,-119.90483)">
    <path
       id="path62"
       style="fill:none;fill-opacity:0;stroke:#9c6d4c;stroke-width:0.264583;paint-order:markers stroke fill;stroke-opacity:1"
       d="M 74.576255 119.36311 C 62.658124 119.15153 51.279047 127.83288 48.363384 139.39858 C 46.121254 147.26669 47.599718 156.75896 54.083965 162.2499 C 56.781356 164.52624 60.033007 166.41182 63.535068 166.98449 L 70.83023 166.98449 C 65.00161 164.13667 62.373508 157.51043 61.34192 151.46658 C 60.098142 143.69248 61.64418 134.89593 67.420102 129.19714 C 69.355628 127.41128 71.902105 126.15381 74.576255 126.17975 L 74.576255 119.36311 z M 71.870993 122.26733 L 71.870993 123.79126 C 69.452778 124.35198 67.301934 125.62599 65.586106 127.20914 A 2.7051925 2.7051925 0 0 0 65.519443 127.27167 C 58.924663 133.77838 57.320429 143.46078 58.669732 151.89446 A 2.7051925 2.7051925 0 0 0 58.675933 151.92185 C 59.38218 156.0596 60.946309 160.55175 63.710768 164.22445 C 60.965312 163.70811 58.197435 162.18076 55.832179 160.18542 C 50.366438 155.55697 48.965683 147.15589 50.964776 140.14065 A 2.7051925 2.7051925 0 0 0 50.98648 140.06056 C 53.354918 130.66556 62.266377 123.30889 71.870993 122.26733 z "
       transform="translate(28.68628,0.67762867)" />
    <path
       d="m 103.26295,120.04095 v 6.8156 c 5.76713,13.60176 11.53414,27.2035 17.30127,40.80526 h 3.02049 c -6.77386,-15.87363 -13.5479,-31.74723 -20.32176,-47.62086 z"
       style="fill-opacity:0;stroke:#9c6d4c;stroke-width:0.264583;paint-order:markers stroke fill;stroke-opacity:1"
       id="path57" />
    <path
       d="m 123.58471,167.66181 h -11.04118 c -0.87625,0.921 -1.62696,1.70985 -2.50321,2.63085 6.09961,-0.0342 12.19952,-0.0686 18.29914,-0.10283 l 2.66185,-2.52802 z"
       style="fill-opacity:0;stroke:#602914;stroke-width:0.264583;paint-order:markers stroke fill;stroke-opacity:1"
       id="path61" />
    <path
       d="m 99.516413,167.66181 h -7.295162 c 0.02796,0.005 0.05521,0.0127 0.0832,0.0171 z"
       style="fill-opacity:0;stroke:#000000;stroke-width:0.264583;paint-order:markers stroke fill"
       id="path60" />
    <path
       d="m 99.516413,167.66181 -7.211963,0.0171 c -0.02799,-0.004 -0.05524,-0.0125 -0.0832,-0.0171 H 78.346646 l -2.6479,2.51303 c 10.570961,0.0441 21.141832,0.0882 31.712794,0.13229 0.87625,-0.88181 1.75253,-1.76351 2.62878,-2.64532 z"
       style="fill-opacity:0;stroke:#602914;stroke-width:0.264583;paint-order:markers stroke fill;stroke-opacity:1"
       id="path59" />
  </g>
</svg>
