<?xml version="1.0" encoding="UTF-8" standalone="no"?>
<svg
   id="Layer_1"
   data-name="Layer 1"
   viewBox="0 0 1144.1901 511.96647"
   version="1.1"
   sodipodi:docname="Full_Logo_Colour5-01.svg"
   width="1144.1901"
   height="511.96646"
   inkscape:version="1.1 (c4e8f9ed74, 2021-05-24)"
   xmlns:inkscape="http://www.inkscape.org/namespaces/inkscape"
   xmlns:sodipodi="http://sodipodi.sourceforge.net/DTD/sodipodi-0.dtd"
   xmlns="http://www.w3.org/2000/svg"
   xmlns:svg="http://www.w3.org/2000/svg">
  <sodipodi:namedview
     id="namedview160"
     pagecolor="#ffffff"
     bordercolor="#666666"
     borderopacity="1.0"
     inkscape:pageshadow="2"
     inkscape:pageopacity="0.0"
     inkscape:pagecheckerboard="0"
     showgrid="false"
     inkscape:zoom="0.9869127"
     inkscape:cx="341.97554"
     inkscape:cy="235.07652"
     inkscape:window-width="1920"
     inkscape:window-height="1053"
     inkscape:window-x="0"
     inkscape:window-y="0"
     inkscape:window-maximized="1"
     inkscape:current-layer="Layer_1" />
  <defs
     id="defs101">
    <style
       id="style99">.cls-1,.cls-10,.cls-11,.cls-12,.cls-13,.cls-14,.cls-15,.cls-2,.cls-3,.cls-4,.cls-5,.cls-6,.cls-7,.cls-8,.cls-9{isolation:isolate;}.cls-1{font-size:547.27px;}.cls-1,.cls-16,.cls-17,.cls-2,.cls-3,.cls-7{fill:#02364a;}.cls-1,.cls-2,.cls-3,.cls-5,.cls-6,.cls-7{font-family:Arial-BoldMT, Arial;font-weight:700;}.cls-2{font-size:533.34px;}.cls-3,.cls-5,.cls-6,.cls-7{font-size:64.6px;}.cls-3{letter-spacing:0.12em;}.cls-10,.cls-11,.cls-12,.cls-13,.cls-14,.cls-15,.cls-5,.cls-8,.cls-9{fill:#182844;}.cls-5,.cls-6,.cls-7{letter-spacing:0.12em;}.cls-10,.cls-11,.cls-12,.cls-13,.cls-14,.cls-15,.cls-8,.cls-9{font-size:31.26px;font-family:ArialMT, Arial;}.cls-8{letter-spacing:0.05em;}.cls-9{letter-spacing:-0.09em;}.cls-10{letter-spacing:0.06em;}.cls-12{letter-spacing:-0.08em;}.cls-13{letter-spacing:0.05em;}.cls-14{letter-spacing:0.02em;}.cls-15{letter-spacing:0.02em;}.cls-16{stroke:#02364a;stroke-miterlimit:10;stroke-width:16px;}</style>
  </defs>
  <text
     class="cls-1"
     transform="scale(1.0099505,0.99014754)"
     id="text103"
     x="377.05807"
     y="395.72891"
     style="stroke-width:1.00995">λ</text>
  <text
     class="cls-2"
     transform="scale(1.0392305,0.96225045)"
     id="text105"
     x="-21.496674"
     y="406.9003"
     style="stroke-width:1.03923">Ω</text>
  <text
     class="cls-3"
     transform="scale(1.161895,0.86066297)"
     id="text107"
     x="-2.0655894"
     y="515.85815"
     style="stroke-width:1.1619">Ω</text>
  <g
     class="cls-4"
     id="g117"
     transform="translate(-174.41081,-162.90807)">
    <text
       class="cls-5"
       transform="matrix(1.31,0,0,1,242.89,606.14)"
       id="text109">mega</text>
    <text
       class="cls-6"
       transform="matrix(1.31,0,0,1,504.55,606.14)"
       id="text111" />
    <text
       class="cls-7"
       transform="matrix(1.31,0,0,1,538.29,606.14)"
       id="text113">λ</text>
    <text
       class="cls-5"
       transform="matrix(1.31,0,0,1,595.51,606.14)"
       id="text115">ambda</text>
  </g>
  <g
     class="cls-4"
     id="g145"
     transform="translate(-164.67,-162.16)">
    <text
       class="cls-8"
       transform="matrix(1.08,0,0,1,164.67,669.7)"
       id="text119">COSMOLOG</text>
    <text
       class="cls-9"
       transform="matrix(1.08,0,0,1,378.68,669.7)"
       id="text121">Y</text>
    <text
       class="cls-10"
       transform="matrix(1.08,0,0,1,398.74,669.7)"
       id="text123">, CODING</text>
    <text
       class="cls-11"
       transform="matrix(1.08,0,0,1,567.64,669.7)"
       id="text125" />
    <text
       class="cls-10"
       transform="matrix(1.08,0,0,1,577.03,669.7)"
       id="text127">AND WH</text>
    <text
       class="cls-12"
       transform="matrix(1.08,0,0,1,725.3,669.7)"
       id="text129">A</text>
    <text
       class="cls-13"
       transform="matrix(1.08,0,0,1,747.2,669.7)"
       id="text131">TEVER C</text>
    <text
       class="cls-12"
       transform="matrix(1.08,0,0,1,906.75,669.7)"
       id="text133">A</text>
    <text
       class="cls-13"
       transform="matrix(1.08,0,0,1,928.65,669.7)"
       id="text135">TCHES M</text>
    <text
       class="cls-14"
       transform="matrix(1.08,0,0,1,1093.82,669.7)"
       id="text137">Y</text>
    <text
       class="cls-13"
       transform="matrix(1.08,0,0,1,1117.62,669.7)"
       id="text141"><tspan
         xml:space="preserve"
         id="tspan139"> INTERES</tspan></text>
    <text
       class="cls-15"
       transform="matrix(1.08,0,0,1,1288.43,669.7)"
       id="text143">T</text>
  </g>
  <path
     class="cls-16"
     d="m 903.33,11.429996 c -126.54,0 -229.11,99.820004 -229.11,223.000004 0,123.18 102.57,223 229.11,223 126.54,0 229.11,-99.82 229.11,-223 0,-123.18 -102.57,-223.000004 -229.11,-223.000004 z m 0,434.780004 c -120.21,0 -217.65,-94.83 -217.65,-211.82 0,-116.99 97.46,-211.810004 217.65,-211.810004 120.19,0 217.66,94.830004 217.66,211.810004 0,116.98 -97.46,211.82 -217.66,211.82 z"
     id="path147" />
  <rect
     class="cls-17"
     x="0.80000305"
     y="0"
     width="1135.42"
     height="7.8200002"
     id="rect149" />
  <rect
     class="cls-17"
     x="0"
     y="0"
     width="7.98"
     height="391.69"
     id="rect151" />
  <rect
     class="cls-17"
     x="0"
     y="385.43002"
     width="740.46002"
     height="9.3800001"
     id="rect153" />
  <rect
     class="cls-17"
     x="0.80000305"
     y="460.48001"
     width="1139.41"
     height="8.6000004"
     id="rect155" />
  <rect
     class="cls-17"
     x="1136.21"
     y="0"
     width="7.98"
     height="469.09"
     id="rect157" />
</svg>
