<svg xmlns="http://www.w3.org/2000/svg" xmlns:svg="http://www.w3.org/2000/svg" id="Layer_1" width="1144.19" height="511.966" data-name="Layer 1" version="1.1" viewBox="0 0 1144.19 511.966"><defs id="defs101"><style id="style99">.cls-1,.cls-10,.cls-12,.cls-13,.cls-14,.cls-15,.cls-2,.cls-3,.cls-4,.cls-5,.cls-7,.cls-8,.cls-9{isolation:isolate}.cls-1{font-size:547.27px}.cls-1,.cls-16,.cls-17,.cls-2,.cls-3,.cls-7{fill:#02364a}.cls-1,.cls-2,.cls-3,.cls-5,.cls-7{font-family:Arial-BoldMT,Arial;font-weight:700}.cls-2{font-size:533.34px}.cls-3,.cls-5,.cls-7{font-size:64.6px}.cls-3{letter-spacing:.12em}.cls-10,.cls-12,.cls-13,.cls-14,.cls-15,.cls-5,.cls-8,.cls-9{fill:#182844}.cls-5,.cls-7{letter-spacing:.12em}.cls-10,.cls-12,.cls-13,.cls-14,.cls-15,.cls-8,.cls-9{font-size:31.26px;font-family:ArialMT,Arial}.cls-8{letter-spacing:.05em}.cls-9{letter-spacing:-.09em}.cls-10{letter-spacing:.06em}.cls-12{letter-spacing:-.08em}.cls-13{letter-spacing:.05em}.cls-14,.cls-15{letter-spacing:.02em}.cls-16{stroke:#02364a;stroke-miterlimit:10;stroke-width:16px}</style></defs><text id="text103" x="377.058" y="395.729" class="cls-1" transform="scale(1.0099505,0.99014754)" style="stroke-width:1.00995">λ</text><text id="text105" x="-21.497" y="406.9" class="cls-2" transform="scale(1.0392305,0.96225045)" style="stroke-width:1.03923">Ω</text><text id="text107" x="-2.066" y="515.858" class="cls-3" transform="scale(1.161895,0.86066297)" style="stroke-width:1.1619">Ω</text><g id="g117" class="cls-4" transform="translate(-174.41081,-162.90807)"><text id="text109" class="cls-5" transform="matrix(1.31,0,0,1,242.89,606.14)">mega</text><text id="text113" class="cls-7" transform="matrix(1.31,0,0,1,538.29,606.14)">λ</text><text id="text115" class="cls-5" transform="matrix(1.31,0,0,1,595.51,606.14)">ambda</text></g><g id="g145" class="cls-4" transform="translate(-164.67,-162.16)"><text id="text119" class="cls-8" transform="matrix(1.08,0,0,1,164.67,669.7)">COSMOLOG</text><text id="text121" class="cls-9" transform="matrix(1.08,0,0,1,378.68,669.7)">Y</text><text id="text123" class="cls-10" transform="matrix(1.08,0,0,1,398.74,669.7)">, CODING</text><text id="text127" class="cls-10" transform="matrix(1.08,0,0,1,577.03,669.7)">AND WH</text><text id="text129" class="cls-12" transform="matrix(1.08,0,0,1,725.3,669.7)">A</text><text id="text131" class="cls-13" transform="matrix(1.08,0,0,1,747.2,669.7)">TEVER C</text><text id="text133" class="cls-12" transform="matrix(1.08,0,0,1,906.75,669.7)">A</text><text id="text135" class="cls-13" transform="matrix(1.08,0,0,1,928.65,669.7)">TCHES M</text><text id="text137" class="cls-14" transform="matrix(1.08,0,0,1,1093.82,669.7)">Y</text><text id="text141" class="cls-13" transform="matrix(1.08,0,0,1,1117.62,669.7)"><tspan id="tspan139" xml:space="preserve">INTERES</tspan></text><text id="text143" class="cls-15" transform="matrix(1.08,0,0,1,1288.43,669.7)">T</text></g><path id="path147" d="m 903.33,11.429996 c -126.54,0 -229.11,99.820004 -229.11,223.000004 0,123.18 102.57,223 229.11,223 126.54,0 229.11,-99.82 229.11,-223 0,-123.18 -102.57,-223.000004 -229.11,-223.000004 z m 0,434.780004 c -120.21,0 -217.65,-94.83 -217.65,-211.82 0,-116.99 97.46,-211.810004 217.65,-211.810004 120.19,0 217.66,94.830004 217.66,211.810004 0,116.98 -97.46,211.82 -217.66,211.82 z" class="cls-16"/><rect id="rect149" width="1135.42" height="7.82" x=".8" y="0" class="cls-17"/><rect id="rect151" width="7.98" height="391.69" x="0" y="0" class="cls-17"/><rect id="rect153" width="740.46" height="9.38" x="0" y="385.43" class="cls-17"/><rect id="rect155" width="1139.41" height="8.6" x=".8" y="460.48" class="cls-17"/><rect id="rect157" width="7.98" height="469.09" x="1136.21" y="0" class="cls-17"/></svg>