<?xml version="1.0" encoding="UTF-8" standalone="no"?>
<svg
   height="20"
   id="Layer_1"
   version="1.1"
   viewBox="0 0 28 20"
   width="28"
   xml:space="preserve"
   sodipodi:docname="hamburger.svg"
   inkscape:version="1.1 (c4e8f9ed74, 2021-05-24)"
   xmlns:inkscape="http://www.inkscape.org/namespaces/inkscape"
   xmlns:sodipodi="http://sodipodi.sourceforge.net/DTD/sodipodi-0.dtd"
   xmlns="http://www.w3.org/2000/svg"
   xmlns:svg="http://www.w3.org/2000/svg"><defs
     id="defs46" /><sodipodi:namedview
     id="namedview44"
     pagecolor="#ffffff"
     bordercolor="#666666"
     borderopacity="1.0"
     inkscape:pageshadow="2"
     inkscape:pageopacity="0.0"
     inkscape:pagecheckerboard="0"
     showgrid="false"
     inkscape:zoom="26.1875"
     inkscape:cx="13.918854"
     inkscape:cy="7.9045346"
     inkscape:window-width="1920"
     inkscape:window-height="1053"
     inkscape:window-x="0"
     inkscape:window-y="0"
     inkscape:window-maximized="1"
     inkscape:current-layer="Layer_1" /><path
     d="M 2,4 H 26 C 27.104,4 28,3.104 28,2 28,0.896 27.104,0 26,0 H 2 C 0.896,0 0,0.896 0,2 0,3.104 0.896,4 2,4 Z M 26,8 H 2 c -1.104,0 -2,0.896 -2,2 0,1.104 0.896,2 2,2 h 24 c 1.104,0 2,-0.896 2,-2 0,-1.104 -0.896,-2 -2,-2 z m 0,8 H 2 c -1.104,0 -2,0.896 -2,2 0,1.104 0.896,2 2,2 h 24 c 1.104,0 2,-0.896 2,-2 0,-1.104 -0.896,-2 -2,-2 z"
     id="path41"
     style="fill:#e5e0d6;fill-opacity:1;stroke:none;stroke-opacity:1" /></svg>
