<svg xmlns="http://www.w3.org/2000/svg" xmlns:svg="http://www.w3.org/2000/svg" id="Layer_1" width="28" height="20" version="1.1" viewBox="0 0 28 20" xml:space="preserve"><path id="path41" d="M 2,4 H 26 C 27.104,4 28,3.104 28,2 28,0.896 27.104,0 26,0 H 2 C 0.896,0 0,0.896 0,2 0,3.104 0.896,4 2,4 Z M 26,8 H 2 c -1.104,0 -2,0.896 -2,2 0,1.104 0.896,2 2,2 h 24 c 1.104,0 2,-0.896 2,-2 0,-1.104 -0.896,-2 -2,-2 z m 0,8 H 2 c -1.104,0 -2,0.896 -2,2 0,1.104 0.896,2 2,2 h 24 c 1.104,0 2,-0.896 2,-2 0,-1.104 -0.896,-2 -2,-2 z" style="fill:#e5e0d6;fill-opacity:1;stroke:none;stroke-opacity:1"/></svg>